<?xml version="1.0" standalone="no"?><!DOCTYPE svg PUBLIC "-//W3C//DTD SVG 1.1//EN" "http://www.w3.org/Graphics/SVG/1.1/DTD/svg11.dtd"><svg t="1686911376468" class="icon" viewBox="0 0 1024 1024" version="1.1" xmlns="http://www.w3.org/2000/svg" p-id="5210" xmlns:xlink="http://www.w3.org/1999/xlink" width="128" height="128"><path d="M472.917333 564.224L368.469333 467.541333a51.456 51.456 0 0 0-72.533333 2.56 46.421333 46.421333 0 0 0 2.56 65.621334l138.752 128.426666a57.258667 57.258667 0 0 0 83.882667 2.56l253.610666-258.218666a49.578667 49.578667 0 0 0-3.242666-72.533334 57.173333 57.173333 0 0 0-77.909334 3.413334L472.917333 564.309333z m39.253334-563.626667a512.085333 512.085333 0 0 1 511.402666 511.488 512.085333 512.085333 0 0 1-511.488 511.488A512.085333 512.085333 0 0 1 0.597333 512.085333 512.085333 512.085333 0 0 1 512.085333 0.597333z" fill="#3ABA6F" p-id="5211"></path></svg>