<?xml version="1.0" standalone="no"?><!DOCTYPE svg PUBLIC "-//W3C//DTD SVG 1.1//EN" "http://www.w3.org/Graphics/SVG/1.1/DTD/svg11.dtd"><svg t="1641272555796" class="icon" viewBox="0 0 3328 1024" version="1.1" xmlns="http://www.w3.org/2000/svg" p-id="45438" xmlns:xlink="http://www.w3.org/1999/xlink" width="416" height="128"><defs><style type="text/css"></style></defs><path d="M2080 812.8c96 0 128-70.4 128-121.6V345.6h12.8l12.8-51.2h-275.2l12.8 51.2h185.6v339.2c0 51.2-38.4 83.2-89.6 83.2l12.8 44.8z" fill="#FF6A00" p-id="45439"></path><path d="M2092.8 697.6c12.8-12.8 19.2-32 19.2-57.6V396.8h-147.2v320h83.2c12.8 0 32-6.4 44.8-19.2z m-83.2-38.4V448h44.8v185.6c0 19.2-6.4 25.6-25.6 25.6h-19.2z m-262.4-364.8v518.4h51.2V345.6h64L1824 512c12.8 12.8 44.8 44.8 44.8 102.4 0 57.6-32 76.8-44.8 83.2v57.6c25.6 0 96-38.4 96-134.4 0-57.6-19.2-96-38.4-121.6l44.8-204.8h-179.2z m582.4 467.2l-12.8 51.2h460.8l-12.8-51.2h-192v-64H2752l-12.8-51.2h-166.4v-64h121.6c57.6 0 83.2-25.6 83.2-83.2V294.4h-460.8v288h204.8v64h-166.4l-12.8 51.2h179.2V768h-192v-6.4z m249.6-294.4h121.6L2688 416h-108.8v-64h147.2v147.2c0 25.6-12.8 38.4-32 38.4h-121.6v-70.4h6.4z m-204.8 64V345.6h147.2v64h-102.4l-12.8 51.2H2528v64l-153.6 6.4z m908.8-236.8h-364.8l-12.8 57.6H3296l-12.8-57.6z m-384 512l352 6.4c19.2 0 38.4-6.4 44.8-19.2 12.8-12.8 6.4-32 0-44.8-6.4-25.6-25.6-115.2-32-128h-57.6v6.4c0 12.8 25.6 108.8 32 134.4h-288c12.8-57.6 38.4-166.4 51.2-211.2h320l-12.8-51.2h-435.2l-12.8 51.2h89.6c0 44.8-32 172.8-51.2 256z m-2592-32c-32-6.4-57.6-38.4-57.6-70.4V320c0-38.4 25.6-64 57.6-70.4l358.4-83.2L704 19.2H288C140.8 19.2 19.2 134.4 19.2 288v460.8c0 140.8 115.2 268.8 268.8 268.8h416L665.6 864l-358.4-89.6zM1350.4 19.2H928l38.4 153.6 358.4 83.2c32 0 57.6 32 57.6 70.4v384c0 38.4-25.6 64-57.6 70.4L966.4 864 928 1017.6h422.4c140.8 0 268.8-115.2 268.8-268.8V281.6c-6.4-147.2-121.6-262.4-268.8-262.4z" fill="#FF6A00" p-id="45440"></path><path d="M665.6 492.8h300.8v38.4H665.6v-38.4z" fill="#FF6A00" p-id="45441"></path></svg>