<svg width="240" height="240" xmlns="http://www.w3.org/2000/svg"><defs><linearGradient x1="50.011%" y1="94.234%" x2="50.011%" y2="3.964%" id="a"><stop stop-color="#006AD4" stop-opacity=".2" offset="0%"/><stop stop-color="#006AD4" stop-opacity=".5" offset="100%"/></linearGradient><linearGradient x1="49.953%" y1="94.226%" x2="49.953%" y2="3.967%" id="b"><stop stop-color="#006AD4" stop-opacity=".5" offset="0%"/><stop stop-color="#006AD4" offset="100%"/></linearGradient></defs><g fill="none"><path d="M188.467 172.611c-11.825 0-21.533 9.838-21.533 21.658 0 11.82 9.781 21.658 21.533 21.658S210 206.309 210 194.416c0-11.893-9.708-21.805-21.533-21.805Z" fill="#006AD4"/><path d="m110.584 6.552 59.854 42.214c5.985 4.258 9.562 11.16 9.562 18.501v103.222h-43.139V83.86c0-3.67-1.825-7.121-4.817-9.25L52.409 18.446 69.343 6.552c12.336-8.736 28.832-8.736 41.24 0Z" fill="url(#a)" transform="translate(30 24)"/><path d="M127.518 18.52 110.584 6.551c-12.409-8.736-28.905-8.736-41.24 0L9.561 48.766C3.577 53.024 0 59.926 0 67.267v120.255C0 190.018 2.044 192 4.526 192h94.452l-12.7-35.9c-1.606-4.479-5.84-7.489-10.585-7.489H43.212V83.86c0-3.67 1.752-7.121 4.817-9.25l47.3-33.331c14.744-10.425 33.284-13.95 50.802-9.764L127.518 18.52Z" fill="url(#b)" transform="translate(30 24)"/></g></svg>
