<svg xmlns="http://www.w3.org/2000/svg" xmlns:xlink="http://www.w3.org/1999/xlink" viewBox="0 0 112 38" fill="#fff" fill-rule="evenodd" stroke="#000" stroke-linecap="round" stroke-linejoin="round"><use xlink:href="#A" x=".5" y=".5"/><symbol id="A" overflow="visible"><g stroke="none"><path d="M77.362 9.266h-2.4l.008 17.872h9.713v-2.2h-7.315zM93.932 24a4.09 4.09 0 0 1-2.974 1.255c-1.828 0-2.565-.9-2.565-2.074 0-1.773 1.228-2.62 3.847-2.62.5 0 1.282.055 1.692.136zm-2.484-10.832a8 8 0 0 0-5.105 1.83l.85 1.47c.982-.573 2.183-1.146 3.902-1.146 1.965 0 2.838 1 2.838 2.7v.873c-.382-.082-1.173-.137-1.664-.137-4.202 0-6.33 1.473-6.33 4.557 0 2.756 1.692 4.147 4.256 4.147 1.728 0 3.383-.8 3.956-2.074l.437 1.746h1.692v-9.14c0-2.892-1.255-4.83-4.83-4.83zm12.577 12.17c-.9 0-1.692-.1-2.292-.382v-8.267c.82-.682 1.828-1.173 3.1-1.173 2.32 0 3.22 1.637 3.22 4.284 0 3.765-1.446 5.54-4.038 5.54m1-12.17c-2.146 0-3.3 1.46-3.3 1.46v-2.308l-.008-3.056h-2.346l.007 17.436c1.173.5 2.783.764 4.53.764 4.475 0 6.63-2.865 6.63-7.803 0-3.902-1.992-6.494-5.512-6.494m-53.755-1.967c2.128 0 3.492.7 4.393 1.42l1.032-1.787c-1.406-1.233-3.298-1.896-5.316-1.896-5.102 0-8.676 3.1-8.676 9.386 0 6.576 3.856 9.14 8.267 9.14 2.2 0 4.093-.518 5.32-1.037l-.05-7.026v-2.2h-6.548v2.2h4.185l.05 5.334c-.546.273-1.5.5-2.783.5-3.547 0-5.92-2.23-5.92-6.93 0-4.775 2.456-7.094 6.057-7.094m16.876-1.946h-2.347l.008 3v10.368c0 2.892 1.255 4.83 4.83 4.83.485 0 .969-.043 1.446-.13v-2.107a7.18 7.18 0 0 1-1.091.082c-1.965 0-2.838-1-2.838-2.7v-7.15h3.93v-1.965h-3.93zm-8.3 17.872h2.347V13.495h-2.347zm0-15.526h2.347V9.265h-2.347z" fill="#8c929d"/><path d="M19.741 36.396l7.273-22.385H12.468z" fill="#e24329"/><path d="M19.741 36.395l-7.273-22.393H2.274z" fill="#fc6d26"/><path d="M2.274 14.002l-2.2 6.803c-.202.62.02 1.3.547 1.684l19.13 13.9z" fill="#fca326"/><path d="M2.274 14.003h10.194L8.088.521c-.225-.694-1.207-.694-1.432 0z" fill="#e24329"/><path d="M19.741 36.396l7.273-22.385h10.194z" fill="#fc6d26"/><path d="M37.208 14.002l2.2 6.803c.202.62-.02 1.3-.547 1.684l-19.13 13.9z" fill="#fca326"/><path d="M37.208 14.003H27.014L31.394.521c.225-.694 1.207-.694 1.432 0z" fill="#e24329"/></g></symbol></svg>