<svg xmlns="http://www.w3.org/2000/svg" xmlns:xlink="http://www.w3.org/1999/xlink" viewBox="0 0 113.25 47.25" fill="#fff" fill-rule="evenodd" stroke="#000" stroke-linecap="round" stroke-linejoin="round"><style><![CDATA[.B{fill:#dcd9d8}.C{fill-rule:nonzero}.D{stroke:none}.E{fill:#d33833}.F{fill:#231f20}.G{stroke:#d33833}.H{stroke-width:.366}]]></style><use xlink:href="#A" x=".625" y=".625"/><symbol id="A" overflow="visible"><g class="D"><path d="M32.507 21.987c0 9.041-7.165 16.37-16.004 16.37S.499 31.027.499 21.987s7.165-16.37 16.004-16.37 16.004 7.329 16.004 16.37" class="E"/><g class="C"><path d="M1.152 26.052S-.007 8.97 15.724 8.482l-1.1-1.83-8.535 2.866-2.437 2.805-2.134 4.085-1.22 4.755.366 3.17" fill="#ef3d3a"/><path d="M5.541 10.82C2.734 13.692.996 17.66.996 22.049s1.75 8.355 4.545 11.227 6.681 4.645 10.963 4.645 8.153-1.773 10.962-4.645 4.546-6.84 4.546-11.227-1.75-8.355-4.546-11.229a15.25 15.25 0 0 0-10.962-4.645c-4.281 0-8.15 1.773-10.963 4.645zm-.712 23.15C1.845 30.917 0 26.7 0 22.047s1.845-8.871 4.829-11.922 7.113-4.945 11.672-4.944 8.688 1.891 11.671 4.944 4.83 7.27 4.829 11.922-1.845 8.87-4.829 11.922-7.111 4.958-11.67 4.958S7.814 37.022 4.83 33.97" class="F"/></g><path d="M23.24 22.078l-2.437.366-3.293.366-2.134.063-2.072-.062-1.585-.5-1.402-1.525-1.098-3.109-.244-.671-1.463-.5-.854-1.402-.61-2 .671-1.769 1.585-.55 1.28.61.61 1.341.731-.123.244-.305-.234-1.386-.062-1.769.366-2.437-.013-1.392 1.125-1.777 1.95-1.403L17.715.68l3.78.55 3.293 2.378 1.525 2.437.975 1.769.244 4.39-.731 3.78-1.341 3.354-1.28 1.769" fill="#f0d6b7"/><path d="M21.167 32.625l-8.73.365v1.462l.731 5.121-.366.428-6.084-2.071-.428-.731-.61-6.875-1.403-4.146-.305-.975 4.878-3.354 1.525-.61 1.341 1.646 1.159 1.038 1.341.425.61.183.731 3.17.55.671 1.402-.5-.975 1.89 5.304 2.5-.67.366" fill="#335061"/><path d="M6.717 11.348l1.585-.55 1.28.61.61 1.341.731-.122.183-.731-.366-1.402.366-3.354-.305-1.829 1.098-1.28 2.377-1.89-.671-.915-3.354 1.646-1.402 1.097-.793 1.707-1.22 1.646-.366 1.95.244 2.073" fill="#6d6b6d"/><path d="M9.217 5.615s.915-2.256 4.573-3.354.182-.793.182-.793l-3.962 1.525-1.525 1.525-.67 1.22 1.402-.123m-1.83 5.305s-1.279-4.269 3.6-4.877l-.182-.731-3.367.79-.963 3.173.244 2.073.67-.425" class="B"/><g fill="#f7e4cd"><path d="M9.339 16.59l.8-.775s.36.043.421.469.241 4.269 2.876 6.344c.25.188-1.95-.305-1.95-.305l-1.95-3.05m11.021-3.84s.143-1.848.64-1.706.497.64.497.64-1.209.782-1.125 1.066"/><path d="M25.618 8.677s-1.005.213-1.098 1.098 1.098.182 1.28.123m-7.56-1.17s-1.341.182-1.341 1.037 1.525.792 1.95.428" class="C"/><path d="M9.936 12.677s-2.317-1.402-2.562-.062-.793 2.316.366 3.719l-.793-.244-.731-1.89-.244-1.829 1.402-1.463 1.585.123.915.731.063.915m1.109-3.843s1.038-5.365 6.28-6.4c4.316-.854 6.585.183 7.438 1.159 0 0-3.841-4.572-7.5-3.17s-6.328 3.974-6.277 5.62l.063 2.805M25.19 4.215s-1.768-.062-1.829 1.525a1.3 1.3 0 0 0 .121.5s1.402-1.585 2.256-.731m-8.303.881s-.304-2.434-2.379-1.019c-1.341.915-1.219 2.195-.975 2.438s.177.735.375.397.125-1.435.795-1.75 1.77-.645 2.196-.079"/></g><path d="M11.717 22.87l-5.73 2.561s2.378 9.45 1.159 12.375l-.854-.305-.062-3.597-1.585-6.829-.671-1.89 5.975-4.025 1.767 1.706m.591 5.231l.813.992v3.658h-.975l-.121-2.865c0-.305.121-1.402.121-1.402m.182 4.816l-2.744.121.792.55 1.95.305" fill="#49728b"/><g fill="#335061"><path d="M21.715 32.687l2.256-.062.55 5.609-2.316.305-.5-5.853"/><path d="M22.311 32.686l3.413-.182 1.402-3.719c0-.182 1.22-5.121 1.22-5.121l-2.744-2.865-.55-.5-1.462 1.462v5.67l-1.279 5.255"/></g><path d="M23.849 32.26l-2.134.425.305 1.708c.793.366 2.134-.61 2.134-.61m-.242-12.192l4.267 3.17.123-1.463-3.231-3-1.159 1.28" fill="#49728b"/><path d="M14.441 44.697l-1.25-5.122-.628-3.779-.127-2.806 5.712-.304h3.554l-.325 6.402.55 4.938-.062.915-4.634.366-2.805-.61"/><path d="M20.936 32.624s-.305 6.341.61 10.853c0 0-1.829 1.159-4.5 1.462l5.121-.182.61-.366-.731-10-.183-2.134" class="B"/><path d="M24.624 37.748l2.378-.671 4.5-.244.685-2.073-1.22-3.597-1.402-.183-1.95.61-1.871.912-.994-.182-.775.304"/><path d="M24.58 36.528s1.585-.731 1.829-.67l-.67-3.354.793-.305.55 3.538 3.719.182s.731-1.402.55-2.865l.671 1.95.062 1.098-.975 1.462-1.097.244-1.829-.062-.61-.792-2.134.305-.671.244" class="B"/><path d="M22.186 32.198l-1.341-3.413-1.402-2s.305-.854.731-.854h1.402l1.341.5-.121 2.256-.61 3.51" class="C"/><path d="M22.446 31.052s-1.707-3.292-1.707-3.78c0 0 .305-.731.731-.55a25.03 25.03 0 0 1 1.341.67v-1.159l-2.073-.427-1.402.183 2.378 5.609.5.063" class="B"/><path d="M14.99 22.994l-1.687-.184-1.585-.5v.55l.775.854 2.438 1.098" class="C"/><path d="M12.265 23.177s1.89.793 2.5.61l.063.731-1.706-.365-1.037-.731.182-.244" class="B"/><path d="M24.618 26.127c-1.035-.03-1.969-.154-2.788-.384.055-.335-.05-.665.035-.906.227-.162.61-.162.955-.2a1.66 1.66 0 0 0-1.061-.12c-.008-.232-.125-.377-.175-.559.581-.207 1.955-1.569 2.727-1.117.367.212.525 1.438.553 2.034.025.494-.045.992-.246 1.254" class="E"/></g><path d="M24.618 26.127c-1.035-.03-1.969-.154-2.788-.384.055-.335-.05-.665.035-.906.227-.162.61-.162.955-.2a1.66 1.66 0 0 0-1.061-.12c-.008-.232-.125-.377-.175-.559.581-.207 1.955-1.569 2.727-1.117.367.212.525 1.438.553 2.034.025.494-.045.992-.246 1.254z" fill="none" class="G H"/><path d="M19.67 24.436l-.009.25c-.323.213-.845.21-1.2.375.448.015.889.126 1.29.326l-.022.591c-.593.405-1.133 1.009-1.83 1.375-.33.18-1.5.643-1.837.56-.2-.046-.216-.293-.295-.525-.169-.497-.558-1.287-.592-2.037-.044-.945-.125-2.529.88-2.334.821.156 1.777.535 2.413.882.375.212.625.475 1.204.52" class="D E"/><path d="M19.67 24.436l-.009.25c-.323.213-.845.21-1.2.375.448.015.889.126 1.29.326l-.022.591c-.593.405-1.133 1.009-1.83 1.375-.33.18-1.5.643-1.837.56-.2-.046-.216-.293-.295-.525-.169-.497-.558-1.287-.592-2.037-.044-.945-.125-2.529.88-2.334.821.156 1.777.535 2.413.882.375.212.625.475 1.204.52z" fill="none" class="G H"/><path d="M20.258 25.552c-.09-.515-.195-.663-.154-1.11 1.372-.915 1.63 1.572.154 1.11" class="D E"/><path d="M20.258 25.552c-.09-.515-.195-.663-.154-1.11 1.372-.915 1.63 1.572.154 1.11z" fill="none" class="G H"/><g class="D"><path d="M22.246 25.98s-.427-.61-.122-.792.61 0 .793-.305 0-.5.063-.854.366-.428.671-.5 1.159-.182 1.28.123l-.366-1.098-.731-.244-2.316 1.341-.123.671v1.355m-5.55 2.329l-.25-2.852c-.129-1.419.341-1.171 1.571-1.171.188 0 1.157.225 1.225.366.332.679-.556.529.383 1.04.792.432 2.192-.25 1.872-1.225-.179-.212-.934-.066-1.205-.206l-1.429-.741c-.606-.315-2.006-.772-2.652-.334-1.625 1.125.104 3.895.688 5.056" fill="#ef3d3a"/><path d="M17.437 6.39c-1.662-.375-2.5.695-2.991 1.817-.45-.109-.271-.721-.158-1.032.298-.818 1.496-1.906 2.475-1.759.421.063.991.45.672.975m8.11 1.892l.079.003c.375.78.7 1.606 1.175 2.295-.317.75-2.402 1.394-2.371.066.45-.198 1.23-.04 1.63-.293-.231-.635-.565-1.175-.5-2.072m-7.246.02c.356.654.473 1.34.979 1.833.227.222.671.492.45 1.125-.05.146-.428.471-.644.535-.791.234-2.625.05-2-.937.655.03 1.535.425 2.025-.05-.375-.6-1.046-1.79-.8-2.49m6.927 6.625c-1.192.766-2.521 1.6-4.475 1.405-.418-.375-.575-1.17-.171-1.704.213.375.079 1.03.666 1.131 1.109.19 2.4-.677 3.196-.981.495-.834-.043-1.14-.5-1.675-.913-1.1-2.135-2.463-2.09-4.106.369-.267.4.408.454.531.475 1.125 1.675 2.537 2.55 3.492.215.235.569.46.607.615.125.45-.295.992-.247 1.293m-15.708-.808c-.375-.212-.463-1.152-.9-1.179-.627-.037-.5 1.219-.51 1.954-.431-.391-.507-1.598-.19-2.218-.375-.177-.522.196-.723.328.258-1.871 2.75-.867 2.325 1.116m16.473 1.584c-.555 1.056-1.34 2.22-2.969 2.254-.032-.341-.059-.86.001-1.065 1.245-.12 2-.754 2.966-1.187m-7.8.684c1.038.546 2.948.605 4.359.563.075.309.075.691.075 1.069-1.815.09-3.96-.359-4.437-1.633m-.194 1.02c.719 1.804 3.187 1.596 5.269 1.546-.091.234-.29.5-.538.625-.667.271-2.507.477-3.432-.015-.587-.312-.965-1.017-1.288-1.431-.155-.2-.929-.71-.012-.712" class="F"/><path d="M25.161 27.371l-2.65 4.2c.419-1.233.6-3.296.663-4.869.877-.41 1.627.093 2 .669" fill="#81b0c4"/><path d="M29.697 32.56c-.944.188-1.606 1.106-2.527 1.047.506-.712 1.393-1 2.528-1.047m.415 1.475c-.769.081-1.672.206-2.453.141.369-.562 1.793-.37 2.453-.141m.268 1.275a28.75 28.75 0 0 1-2.76-.068c.5-.523 2.2-.194 2.76.068" class="F"/><path d="M23.537 38.794c.125 1.085.555 2.185.5 3.375-.477.163-.752.303-1.392.3l-.14-3.519c.315.021.779-.225 1.032-.157" class="B"/><path d="M22.142 22.795c-.434.284-.804.625-1.22.94-.925.046-1.429-.062-2.108-.595.012-.043.08-.025.082-.075.99.441 2.247-.18 3.246-.269" fill="#f0d6b7"/><path d="M16.946 29.553c.271-1.177 1.337-1.788 2.305-2.437 1 1.268 1.606 2.896 2.275 4.47-1.58-.475-3.194-1.25-4.579-2.032" fill="#81b0c4"/><path d="M22.502 38.952c-.04.963.095 2.508.14 3.519.64.001.915-.14 1.393-.3.054-1.187-.375-2.288-.5-3.375-.252-.067-.718.179-1.033.157zm-9.971-5.479c.423 3.881 1.034 7.145 2.155 10.583 2.49.756 5.491.821 7.691.14-.404-1.94-.228-4.303-.463-6.372l-.331-4.71c-2.666-.555-6.435-.13-9.053.36zm9.683-.335c-.023 1.667.075 3.312.203 4.981l1.669-.291c-.194-1.607-.169-3.415-.563-4.837-.455.004-.855-.005-1.309.146zm3.247-.269c-.304-.07-.657-.002-.947.002l.584 4.285c.456.012.7-.2 1.075-.275.02-1.252-.11-2.977-.713-4.015zm4.918 4.493c.953-.231 1.55-1.398 1.284-2.595-.179-.805-.497-2.32-.837-2.835-.25-.381-.934-.879-1.479-.53-.875.567-2.448.733-3.094 1.419.325 1.079.425 2.562.559 3.929 1.107.069 2.47-.305 3.391.093-.643.209-1.478.21-2.033.5.454.219 1.516.175 2.21.006zm-8.855-5.79c-.669-1.572-1.275-3.202-2.275-4.47-.968.65-2.032 1.259-2.305 2.438 1.385.784 3 1.556 4.579 2.032zm1.65-4.87c-.062 1.572-.242 3.625-.663 4.869 1-1.275 1.806-2.756 2.65-4.2-.359-.575-1.11-1.08-2-.669zm-1.869-.663c-.379-.041-.7.435-1.193.23l-.33.381c1.087 1.313 1.583 3.171 2.423 4.713.45-1.48.4-3.1.5-4.716-.62.037-.962-.56-1.398-.606zm-1.2-1.587c-.04.45.063.596.154 1.11 1.475.462 1.219-2.025-.154-1.11zm-1.625-.538c-.625-.348-1.591-.725-2.413-.883-1.019-.195-.922 1.375-.88 2.334.034.748.423 1.538.593 2.038.079.232.098.479.295.525.35.081 1.508-.381 1.838-.56.697-.38 1.25-.984 1.83-1.375l.022-.591a3.11 3.11 0 0 0-1.29-.326c.355-.179.875-.175 1.2-.375l.009-.25c-.59-.045-.815-.308-1.204-.52zm-6.075-1.104c-.527.538 1.48 1.266 2.12 1.306-.004-.337.194-.659.154-.902-.76-.134-1.758-.045-2.275-.404zm6.503.25c-.003.052-.071.034-.083.075.679.531 1.184.64 2.107.595l1.22-.94c-1 .087-2.258.71-3.246.269zm5.969 1.81c-.029-.595-.185-1.82-.553-2.034-.773-.45-2.145.91-2.727 1.117.063.183.168.325.175.559a1.66 1.66 0 0 1 1.061.12c-.345.037-.727.037-.955.2-.084.241.02.571-.035.906.819.231 1.753.354 2.788.384.2-.25.27-.76.246-1.254zM11.504 23.33c-.166-.119-1.287-1.577-1.441-1.516-2.029.8-3.925 2.184-5.621 3.492 1.616 3.469 2.27 7.718 2.37 11.814 1.875.866 3.491 2.115 6.004 2.245l-.721-5.83c-.631-.266-1.537.013-2.127-.083-.005-.712.902-.312.977-.79.058-.375-.5-.39-.319-.96.462.168.705.537 1.198.677.45-.985-.006-2.727.059-3.55.012-.155.078-.856.425-.732.306.109-.018 1.866.016 2.645.03.718-.087 1.412.204 1.875 2.428-.33 4.895-.544 7.523-.616-.578-.247-1.265-.483-2.018-.907-.407-.23-1.695-.709-1.812-1.096-.187-.617.493-.946.61-1.475-1.225.669-1.465-.641-1.755-1.569-.25-.84-.412-1.468-.475-1.953-1.056-.504-2.185-1-3.094-1.659zm12.288-1.34c1.69-.82 1.995 3.063 1.332 4.315.102.372.455.516.6.85l-2.954 4.937c.716-.446 1.75-.08 2.581-.412.308-.121.531-.828.75-1.391.641-1.553 1.315-3.509 1.615-4.99.067-.338.252-1.073.212-1.372-.075-.538-.804-.937-1.175-1.269l-1.817-1.73c-.288.428-.91.713-1.146 1.063zM7.636 6.997c-.805.875-.625 2.548-.54 3.729 1.456-.916 3.375.073 3.37 1.63.695-.019.26-.869.134-1.416-.413-1.787.692-3.731.05-5.366-1.247.095-2.271.604-3.015 1.423zm5.75-5.144c-1.825.518-4.162 1.843-4.91 3.48.58-.084.983-.377 1.555-.412.216-.012.5.091.75.029.495-.123.912-1.234 1.287-1.648.365-.404.802-.575 1.102-.944.193-.092.478-.087.5-.375-.084-.088-.171-.158-.271-.129zm9.494.5c-1.892-1.067-5.096-1.871-7.11-.868-1.625.81-3.821 2.15-4.57 3.85.7 1.625-.207 3.141-.265 4.805-.031.885.418 1.659.45 2.622-.25.395-.97.444-1.475.416-.17-.852-.469-1.812-1.346-1.908-1.243-.125-2.15.893-2.208 1.968-.066 1.25.97 3.358 2.441 3.213.567-.056.707-.625 1.325-.62.335.669-.517.88-.605 1.358-.022.125.071.606.125.834.268 1.104.875 2.531 1.45 3.371.744 1.065 2.205 1.225 3.778 1.33.281-.605 1.315-.555 2-.398-.807-.32-1.559-1.095-2.181-1.781-.715-.787-1.437-1.633-1.475-2.662 1.35 1.875 2.466 3.5 4.925 4.335 1.859.625 4.029-.287 5.458-1.287.593-.416.946-1.079 1.367-1.684 1.575-2.267 2.313-5.502 2.15-8.64-.066-1.294-.062-2.582-.497-3.453-.454-.91-2-1.725-2.875-.9-.166-.885.746-1.432 1.82-1.125-.765-1-1.567-2.175-2.655-2.787zm3.525 29.185c1.479-.735 4.243-1.979 5.17.003.343.73.744 1.965.921 2.72.25 1.063-.271 3.3-1.365 3.657-.966.315-2.093.296-3.256.063-.163-.147-.297-.324-.396-.52-.831-.032-1.609.045-2.265.375.063.625-.354.713-.742.84-.288 1.145.578 2.64.37 3.685-.148.744-1.062.859-1.75.998-.023.412.03.759.075 1.109-.154.566-.844.89-1.498.969-2.15.259-5.416.375-7.485-.369-.577-1.416-1.032-3.125-1.5-4.755-2.017.215-3.65-.87-5.187-1.582-.533-.248-1.27-.383-1.469-.807-.193-.41-.125-1.198-.162-1.94-.121-1.898-.225-3.729-.728-5.672-.225-.872-.617-1.641-.891-2.481-.252-.779-.695-1.741-.81-2.518-.171-1.15.913-1.215 1.606-1.712 1.071-.771 1.913-1.197 3.072-1.894.344-.206 1.38-.727 1.498-.969.234-.475-.402-1.15-.573-1.521-.269-.59-.41-1.093-.45-1.675-.975-.154-1.713-.732-2.156-1.375-.75-1.081-1.25-3.081-.625-4.602.05-.12.3-.355.338-.54.072-.375-.125-.844-.15-1.23-.03-1.99.373-3.694 1.69-4.29.54-2.152 2.475-2.869 4.296-3.937.681-.4 1.433-.655 2.208-.941 2.781-1.025 7.05-.831 9.357.915.979.74 2.544 2.304 3.104 3.435 1.479 3 1.375 7.983.337 11.616-.125.5-.34 1.205-.622 1.791-.196.409-.806 1.229-.733 1.59.075.375 1.391 1.371 1.673 1.644.508.49 1.471 1.14 1.55 1.758.084.658-.29 1.558-.479 2.191l-1.954 5.964" class="F"/><path d="M16.552 16.867c.08-.106.521-.269 1.125.029 0 0-.731.123-.671 1.341l-.305-.062s-.315-1.106-.163-1.309" fill="#f7e4cd"/><path d="M21.899 27.352c0 .185-.15.335-.335.335s-.335-.15-.335-.335.15-.335.335-.335.335.15.335.335m.335 1.554c0 .185-.15.335-.335.335s-.335-.15-.335-.335.15-.335.335-.335.335.15.335.335" fill="#1d1919"/><path d="M36.516 31.308v-2.025h1.12q.05.81.379 1.19.337.379.991.379.837 0 1.163-.646.337-.625.337-2.405V16.397h-1.87v-1.043h6.852v1.043h-1.646V27.87q0 2.095-1.06 3.06-1.05.965-3.352.965-.715 0-1.44-.146-.725-.146-1.475-.44zm16.713-8.258q0-1.81-.338-2.534-.337-.733-1.146-.733-.785 0-1.129.715-.337.715-.337 2.396v.155h2.948zm3.352 1.025h-6.3v.069q0 1.775.535 2.569.535.785 1.725.785.991 0 1.604-.525.625-.525.785-1.525h1.431q-.371 1.56-1.475 2.293-1.104.732-3.088.732-2.379 0-3.655-1.25-1.267-1.259-1.267-3.587 0-2.275 1.3-3.55 1.3-1.275 3.62-1.275 2.275 0 3.491 1.345 1.215 1.337 1.292 3.922zm1.415 4.146v-1.043h1.3v-7.075h-1.3V19.06h4.352v1.291q.55-.819 1.259-1.181.706-.375 1.784-.375 1.543 0 2.328.913.792.905.792 2.672v4.796h1.31v1.043h-5.475v-1.043h1.125v-4.87q0-1.162-.3-1.625-.293-.456-1.025-.456-.922 0-1.354.681-.431.673-.431 2.146v4.124h1.12v1.043h-5.475zm18.334 0h-5.519v-1.043h1.3V15.844h-1.3V14.81h4.353v8.625l3.697-3.319h-1.095v-1.042h4.18v1.042h-1.685l-2.375 2.12 3.875 4.956h.991v1.042h-5.257v-1.042h1.078l-2.543-3.265-.854.759v2.491h1.155v1.042zm7.75-11.756q0-.7.483-1.172.482-.482 1.181-.482.681 0 1.155.482.482.475.482 1.172 0 .681-.482 1.163-.475.475-1.155.475-.7 0-1.181-.475-.483-.475-.483-1.163zm3.338 10.713h1.31v1.042h-5.666v-1.042h1.3v-7.075h-1.3V19.06h4.352v8.118zm2.368 1.043v-1.043h1.3v-7.075h-1.3V19.06h4.353v1.291q.55-.819 1.259-1.181.706-.375 1.784-.375 1.543 0 2.328.913.793.905.793 2.672v4.796h1.31v1.043h-5.475v-1.043h1.125v-4.87q0-1.162-.3-1.625-.293-.456-1.025-.456-.922 0-1.354.681-.431.673-.431 2.146v4.124h1.12v1.043h-5.475zm13.05-.266v-2.56h.975q.121 1.025.768 1.569.646.535 1.759.535.931 0 1.422-.319.5-.328.5-.931 0-.55-.319-.854-.31-.3-1.215-.525l-1.259-.319q-1.422-.354-2.06-1.009-.625-.663-.625-1.784 0-1.491 1.034-2.215 1.034-.733 3.188-.733.81 0 1.725.125.922.129 2.034.413v2.31h-.975q-.078-.94-.672-1.413-.587-.475-1.69-.475-.931 0-1.412.3-.475.292-.475.875 0 .465.275.733.275.267.991.45l1.25.319q1.8.456 2.491 1.129.69.672.69 1.87 0 1.55-1.125 2.293-1.104.732-3.437.732-.854 0-1.81-.129-.956-.129-2.025-.375z" fill="#000" class="C"/></g></symbol></svg>