<?xml version="1.0" standalone="no"?><!DOCTYPE svg PUBLIC "-//W3C//DTD SVG 1.1//EN" "http://www.w3.org/Graphics/SVG/1.1/DTD/svg11.dtd"><svg t="1641272458328" class="icon" viewBox="0 0 4812 1024" version="1.1" xmlns="http://www.w3.org/2000/svg" p-id="44617" xmlns:xlink="http://www.w3.org/1999/xlink" width="601.5" height="128"><defs><style type="text/css"></style></defs><path d="M879.16032 868.9152l-359.936 155.0848-364.1344-144.8448-155.0848-359.936 144.8448-364.1344L504.78592 0l364.1344 144.8448 155.0848 359.936-144.8448 364.1344z m-18.8416-379.3408c-5.12 0-64.8192 1.792-131.84 4.7104a217.088 217.088 0 0 0-51.7632-123.7504c32.512-29.696 64.768-59.648 96.7168-89.9584a21.75488 21.75488 0 1 0-30.7712-30.7712l-89.8048 96.768a217.05728 217.05728 0 0 0-124.1088-51.2c2.9184-67.0208 4.7104-126.72 4.7104-131.84a21.8624 21.8624 0 0 0-43.6736 0c0 5.12 1.792 64.8192 4.608 131.84a216.55552 216.55552 0 0 0-124.2112 51.5584c-29.5936-32.3584-59.4944-64.512-89.6512-96.3584a21.75488 21.75488 0 1 0-30.7712 30.7712c3.6864 3.584 47.0016 44.4416 96.4608 89.4976a216.56576 216.56576 0 0 0-51.5584 124.416c-43.7248-2.048-87.4496-3.584-131.1744-4.7104a21.8624 21.8624 0 1 0 0 43.6736c5.12 0 64.4096-1.792 131.1744-4.608a217.6256 217.6256 0 0 0 51.5584 124.36992c-32.256 29.44-64.3072 59.23328-96 89.33888a21.6576 21.6576 0 0 0-0.09216 30.62784l0.09216 0.09216a21.6576 21.6576 0 0 0 30.62784 0.09216l0.09216-0.09216c3.6352-3.57888 44.288-46.7968 89.3952-96.0512a216.8832 216.8832 0 0 0 124.6208 51.2c-1.9712 43.68896-3.5072 87.3984-4.608 131.11808a21.8624 21.8624 0 0 0 43.6224 0c0-5.06368-1.6896-64.512-4.608-131.16928a216.6784 216.6784 0 0 0 124.16-52.0704c29.5936 32.4096 59.4944 64.512 89.6512 96.3584a21.74464 21.74464 0 0 0 30.7712-30.72c-3.584-3.64032-47.0016-44.65152-96.3584-89.80992a216.7808 216.7808 0 0 0 50.944-124.41088c66.9184 2.96448 126.6176 4.7616 131.7376 4.7616a21.8624 21.8624 0 0 0 0-43.6736h0.0512z m-296.8064 62.1568c7.2704-9.3184 11.776-20.48 13.1072-32.256 31.1296 2.9696 75.264 5.5296 119.552 7.68a184.63232 184.63232 0 0 1-42.496 103.8848 3030.56896 3030.56896 0 0 0-90.112-79.3088h-0.0512z m-0.512-80.2304a2851.01056 2851.01056 0 0 0 89.7536-78.848 184.23808 184.23808 0 0 1 43.3664 103.3728c-39.936 1.6896-79.7696 4.2496-119.552 7.68a65.64352 65.64352 0 0 0-13.6192-32.256l0.0512 0.0512z m-43.5712-24.1152c2.9184-30.976 5.4784-75.1616 7.68-119.4496a184.3456 184.3456 0 0 1 103.6288 42.752 3201.8432 3201.8432 0 0 0-79.104 89.8048 63.34464 63.34464 0 0 0-32.256-13.1072h0.0512z m36.608 29.7984l11.6736 27.3408c0.6144 4.6592 0.6656 9.3184 0.0512 14.02368l-11.1616 27.55072-9.7792 10.0352-27.3408 11.62752c-4.65408 0.60928-9.3696 0.62464-14.0288 0.0512l-27.5456-11.264-9.984-9.728-11.5712-27.3408c-0.62976-4.65408-0.6656-9.3696-0.1024-14.0288l11.1616-27.5456 9.728-9.9328 27.392-11.6224c4.608-0.5632 9.2672-0.6656 14.0288-0.0512l27.5456 11.1104 9.9328 9.77408z m-163.6864-106.1888a184.33536 184.33536 0 0 1 103.68-43.008c2.1504 44.288 4.7104 88.4736 7.68 119.4496a64.98816 64.98816 0 0 0-32.1536 13.6192 2992.62464 2992.62464 0 0 0-79.2064-90.112v0.0512z m54.9888 133.632a2912.52736 2912.52736 0 0 0-120.064-7.7824 184.32 184.32 0 0 1 43.008-103.8336 3129.73824 3129.73824 0 0 0 90.1632 79.2576 65.54624 65.54624 0 0 0-13.1072 32.3072v0.0512z m13.824 47.8208a3004.43648 3004.43648 0 0 0-90.5216 79.50848 183.78752 183.78752 0 0 1-43.3664-103.936c40.0896-1.73056 80.13312-4.29056 120.1152-7.68 1.536 11.4688 6.0416 22.52288 13.7216 32.10752h0.0512z m43.52 24.1664a2863.9232 2863.9232 0 0 0-7.7824 120.1664 184.69888 184.69888 0 0 1-104.1408-42.752 3266.79552 3266.79552 0 0 0 79.616-90.5728c9.5744 7.4752 20.736 11.776 32.256 13.1584h0.0512z m127.0272 76.544a184.1408 184.1408 0 0 1-103.6288 43.6224 2907.77088 2907.77088 0 0 0-7.7312-120.1664 65.536 65.536 0 0 0 32.1024-13.6704c25.8048 30.6176 52.224 60.672 79.2576 90.2144z" fill="#316CE6" p-id="44618"></path><path d="M1339.65312 538.40384c-6.5024-9.5744-4.352-17.4592-4.352-24.8832-0.2048-77.61408 0-155.23328-0.256-232.85248 0-21.0432-3.5328-23.7056-24.576-20.48-15.7184 2.5088-31.2832 6.0928-47.0016 7.3728-19.7632 1.536-26.3168 10.3424-26.112 29.7984 0.9216 92.9792 0.4096 186.0096 0.4096 279.04 0 55.80288 0.3584 111.616-0.2048 167.424-0.1536 15.6672 5.7856 22.272 22.0672 21.55008a499.52768 499.52768 0 0 1 51.5072 0.05632c17.92 1.024 24.7808-5.7344 24.2688-23.3472-0.9216-35.328-0.3072-70.60992-0.1536-105.88672 0-4.9152-1.8432-11.62752 3.2768-14.18752 6.8608-3.37408 10.34752 3.89632 14.336 7.6288 22.9376 21.50912 40.448 47.21152 59.2896 71.99232 15.5136 20.48 21.6064 52.0192 45.824 60.5184 24.0128 8.4992 53.4016 2.9184 80.384 2.9696 22.4768 0.0512 24.1664-2.56 13.312-21.7088a724.16768 724.16768 0 0 0-114.7904-153.8048c-14.5408-14.6944-14.336-23.14752 0.256-36.9152 38.3488-36.2496 72.2944-76.4928 107.264-115.8144 3.2768-3.6864 8.96-7.5264 6.5536-12.9536-2.56-5.7856-9.3696-3.4304-14.336-3.4816-23.7568-0.256-47.5136 0.5632-71.2704-0.3584-15.4624-0.6656-25.6 5.2224-35.2256 16.6912-28.672 34.1504-56.9856 68.7616-90.4704 101.57568M2983.31648 599.28064c0 48.64 0.4608 97.28-0.256 145.8688-0.2048 16.6912 6.144 23.3472 22.7328 22.27712 12.1856-0.8192 24.4224-0.15872 36.65408-0.15872 33.13152-0.0512 33.1776-0.0512 33.1776-33.17248 0.0512-69.12-0.0512-138.13248 0.2048-207.25248 0-9.16992-2.3552-19.8656 8.3968-25.70752 34.4576-18.5856 82.4832 2.7136 89.91232 40.8064 3.2768 16.84992 4.352 34.304 4.60288 51.51232 0.51712 49.8688 0.6656 99.7376 0 149.6576-0.3072 18.32448 6.8096 25.6 25.088 24.32a336.19968 336.19968 0 0 1 44.3904 0c17.664 1.17248 23.808-6.04672 23.6032-23.4496-0.67072-60.77952-0.2048-121.5488-0.3584-182.27712 0-17.3568-2.7648-34.45248-6.656-51.3024-12.0832-51.71712-44.7488-82.2784-97.28-90.9312-56.9856-9.3696-112.74752-0.3584-168.2944 11.6224-13.824 2.9696-16.08192 12.288-16.0256 24.32 0.26112 47.96928 0.10752 95.89248 0.10752 143.86688M1901.2352 583.90528c0-47.97952-0.4096-95.95904 0.2048-143.93344 0.256-17.3568-6.5024-24.576-24.064-23.552-14.848 0.9216-29.8496 1.024-44.6976 0-18.4832-1.3312-25.088 5.888-24.9344 24.32 0.768 67.12832 0.3072 134.35904 0.3072 201.48224 0 44.2368-0.2048 44.3904-45.7216 43.1104-28.8768-0.81408-44.3392-12.8-51.1488-40.3968a193.65376 193.65376 0 0 1-5.12-47.5648c0.1536-53.0944-0.3072-106.19904 0.1536-159.29344 0.1536-15.5136-5.632-22.272-21.6576-21.6064-17.408 0.768-34.9184 0.4608-52.4288 0.1536-12.9024-0.2048-19.2512 5.4272-19.1488 18.3296 0.512 70.35392-1.8944 140.81024 2.0992 211.00032 4.1984 73.98912 42.0352 110.59712 116.736 120.12032 49.408 6.3488 97.9456-2.2528 146.432-11.264 17.408-3.2768 23.5008-11.8784 23.2448-28.8768-0.71168-47.36-0.256-94.72-0.256-142.0288M3702.10304 499.21024c1.59232 47.21152-2.75968 104.448 3.48672 161.48992 5.7856 52.74112 31.9488 88.00768 79.25248 100.80768 43.008 11.6224 86.1184 8.6016 128.4608-4.7104 5.58592-1.7408 13.0048-3.52768 13.11232-10.03008 0.256-21.04832-1.1264-43.37152-11.4176-61.18912-7.87968-13.6704-25.08288 1.54112-38.1952 0.4608-1.9456-0.19968-3.9424 0.3584-5.88288 0.56832-48.8448 5.632-70.25152-12.08832-71.3728-60.01152-0.51712-24.7808-0.5632-49.5616-0.1536-74.3424 0.8192-61.952-9.0624-53.3504 56.99072-54.32832 66.3552-1.01888 57.7024 10.71104 58.4192-58.88 0.14848-14.84288-6.7584-20.3264-21.6576-20.01408-23.7056 0.512-47.46752-0.6144-71.168 0.256-17.3568 0.6144-23.4496-6.50752-22.77888-22.6304 0.81408-18.9952-0.26112-38.0928 0.19968-57.1904 0.3584-14.848-5.2224-21.20192-21.4016-17.92-17.40288 3.57888-34.9184 6.95808-52.5824 8.44288-18.84672 1.59232-23.8592 10.9056-23.55712 27.7504 0.76288 43.83744 0.24576 87.71072 0.24576 141.47072M4458.65472 767.26272c38.656 0.1024 69.9392-2.56 99.73248-15.46752 36.864-15.87712 53.5552-44.2368 54.68672-81.3056 1.024-35.328-9.216-66.56-43.2128-86.37952a452.03968 452.03968 0 0 0-68.352-31.3344c-12.0832-4.608-24.2176-9.216-34.304-17.24928-16.384-13.00992-13.568-31.95392 5.88288-40.15104 8.96-3.78368 18.688-4.80768 28.47232-5.12 21.7088-0.6656 42.6496 3.5328 63.0784 9.8304 13.4144 4.10112 19.2-0.1024 21.49888-12.6464 2.56-14.08 5.7344-28.1088 9.1136-42.0352 2.4064-9.9328-1.3824-15.2064-11.41248-17.8688-47.00672-12.4416-94.464-17.0496-142.18752-5.632-45.824 10.9056-73.3696 41.8816-78.336 84.9408-5.0688 44.3392 15.0528 81.05472 57.1392 101.38624 22.016 10.5984 45.2096 18.7392 67.4816 28.88192 15.104 6.8608 33.38752 13.46048 29.4912 34.2016-4.096 21.44768-24.67328 19.712-40.69888 20.67968-30.11072 1.84832-59.4432-4.44928-87.6544-14.02368-15.5648-5.22752-21.2992-1.1264-23.296 13.5168a223.2832 223.2832 0 0 1-7.73632 36.608c-5.06368 15.9744 2.20672 22.6304 17.2032 26.8288 29.4912 8.23808 59.2896 13.2608 83.456 12.288M2704.34816 602.56256c0 47.5136 0.46592 95.03232-0.256 142.5408-0.2048 16.2304 5.3248 23.8592 23.1936 22.84032 15.4112-0.8704 30.9248-0.10752 46.3872-0.1536 29.29152-0.10752 29.75232-0.51712 29.7984-27.648v-188.7744c0-55.03488 1.5872-55.90528 60.2112-53.14048 16.896 0.768 36.4544 14.7968 49.664 1.9456 12.0832-11.776 8.8064-32.768 13.568-49.4592 5.12-17.81248-2.41152-25.49248-20.9408-29.0304-59.60192-11.41248-117.35552-4.352-175.104 10.9056-19.456 5.12-27.5456 13.3632-26.98752 33.28 1.39264 45.56288 0.46592 91.12064 0.46592 136.69376M2271.9232 536.23296c-19.5584-100.29568-96.0512-145.92-198.144-117.90848-18.944 5.1712-22.016-1.536-21.8624-16.9472 0.4096-38.9632 0.1536-77.9264 0.0512-116.8896-0.0512-28.6208-1.9968-30.1056-30.5152-25.6-13.7728 2.1504-27.4432 5.12-41.3184 6.1952-18.432 1.536-24.2688 10.4448-24.064 27.7504 0.7168 72.1408 0.3072 144.2816 0.3072 216.4224v218.41408c-0.768 13.41952 2.4576 23.4496 18.6368 26.7776 47.616 9.8816 95.5392 17.2544 144.2816 13.52192 81.40288-6.25152 136.85248-53.96992 152.576-130.76992a256.59904 256.59904 0 0 0 0-100.9664" fill="#242E42" p-id="44619"></path><path d="M2169.5232 636.84608c-19.3024 50.27328-65.024 56.0128-105.984 47.76448-11.0592-2.24768-11.264-11.36128-11.3664-19.80928-0.1536-23.552 0-47.21152 0-70.8608 0-24.2176 0.1536-48.49152-0.0512-72.76032-0.1536-11.71968 5.12-18.68288 16.64-23.08608 54.272-20.8896 97.8432 2.50368 107.264 57.64608 4.7104 27.648 3.57888 54.78912-6.50752 81.15712" fill="#FFFFFF" p-id="44620"></path><path d="M2432.44032 544.28672c4.92032-27.19232 30.0544-48.64512 59.6992-49.92512 29.696-1.28 55.04 16.896 62.1056 43.776 3.64032 13.9776-0.19968 21.61152-16.53248 21.35552-15.0016-0.1536-29.952 0-44.9536 0v-0.10752c-15.616 0-31.232 0.10752-46.84288-0.0512-10.39872-0.09728-15.47264-4.096-13.47584-15.04768m18.0224 78.0288c29.2864-0.51712 58.624-0.10752 87.9104-0.10752v-0.1536c29.3376 0 58.6752-0.512 87.9616 0.2048 16.9984 0.35328 23.3984-6.4512 22.9376-22.0672-0.6144-19.1488-0.4096-38.144-3.4816-57.1904-10.96192-68.56704-52.4288-111.62112-118.9888-122.78272-72.40192-11.9296-138.1376 17.664-171.3664 77.056-28.0576 50.18112-28.9792 103.28064-15.67232 156.68224 14.7968 59.392 57.088 94.10048 118.6816 107.6224 45.3632 9.984 90.7776 5.12 135.68-4.096 35.7376-7.424 36.1984-8.60672 29.90592-43.3152-1.4336-7.8848-3.23072-15.7696-4.10112-23.76192-1.3824-13.312-6.656-18.432-21.65248-13.2608-21.504 7.48032-44.544 9.1136-67.2768 10.5984-43.4176 2.87232-81.72032-14.4384-95.23712-42.2912-8.18176-16.9984-4.85888-22.84032 14.69952-23.13728M4260.00384 459.01824c-55.552-61.3376-211.96288-69.0688-263.5264 54.4256-16.896 40.4992-18.8928 82.3808-11.1104 124.8256 12.544 68.24448 58.8288 112.896 130.5088 125.44 50.176 8.704 99.4816 2.56 148.37248-9.5232 15.36-3.84 17.408-12.8 14.7456-25.3952a422.4512 422.4512 0 0 1-6.912-40.44288c-1.4336-13.41952-7.99232-15.00672-20.0192-11.2128-21.3504 6.7072-43.6736 9.1136-65.9968 10.9056-46.08 3.584-85.3504-13.35808-99.7888-43.008-8.3456-17.152-5.12-22.6816 14.7456-22.93248 29.6448-0.4096 59.2384-0.10752 88.83712-0.10752v-0.14848c29.6448 0 59.23328-0.1024 88.87808 0 11.776 0.1024 21.86752-2.6112 22.528-15.4112 2.66752-53.15584-2.19136-104.30464-41.26208-147.41504" fill="#242E42" p-id="44621"></path><path d="M4190.32576 558.80704c-15.104-0.19968-30.2592 0-45.4144 0v-0.19968c-15.7696 0-31.5904 0.14848-47.36 0-11.776-0.15872-16.3328-5.38112-13.9264-16.90112 5.7856-27.95008 30.8224-48.07168 61.58848-48.63488 30.2592-0.512 54.1696 17.664 61.44 45.81888 3.584 13.9264-1.28 20.12672-16.32768 19.96288" fill="#FFFFFF" p-id="44622"></path><path d="M3606.68672 462.77632c-75.5712-79.616-219.6992-52.224-264.69888 49.40288-17.664 39.8336-18.0736 81.50528-12.19072 122.87488 9.9328 70.2976 57.344 115.968 130.66752 129.2288 45.56288 8.192 90.624 3.5328 135.2704-6.3488 31.8464-7.00928 32.256-8.0896 26.5216-39.2192-1.63328-9.21088-3.6864-18.32448-4.9152-27.54048-1.7408-13.2608-8.85248-16.5888-21.9648-12.6976a243.50208 243.50208 0 0 1-66.1504 10.1376c-38.75328 0.55808-75.87328-4.7616-97.1264-41.06752-10.0352-17.1008-5.43232-24.1664 15.04768-24.5248 29.70112-0.512 59.34592-0.1024 88.99072-0.1024v-0.20992h89.0368c10.752 0 20.9408-2.04288 21.504-14.22848 2.3552-52.33152-0.6144-104.13568-40.0384-145.71008" fill="#242E42" p-id="44623"></path><path d="M3535.46752 559.8464c-15.09888-0.2048-30.25408-0.0512-45.40928-0.0512v-0.1024c-15.87712 0-31.64672 0.1024-47.46752 0-11.5712-0.10752-16.7424-4.6592-14.336-16.44032 5.376-27.02336 31.5392-48.22528 61.44-48.94208 30.3104-0.768 54.272 17.24928 61.696 45.35808 3.584 13.6192-0.512 20.32128-15.872 20.16768" fill="#FFFFFF" p-id="44624"></path></svg>