<?xml version="1.0" standalone="no"?><!DOCTYPE svg PUBLIC "-//W3C//DTD SVG 1.1//EN" "http://www.w3.org/Graphics/SVG/1.1/DTD/svg11.dtd"><svg t="1641268230690" class="icon" viewBox="0 0 1116 1024" version="1.1" xmlns="http://www.w3.org/2000/svg" p-id="40197" xmlns:xlink="http://www.w3.org/1999/xlink" width="139.5" height="128"><defs><style type="text/css"></style></defs><path d="M8.98285 699.269968l1098.91697 0 0 315.747182-1098.91697 0 0-315.747182Z" fill="#0096E6" p-id="40198"></path><path d="M978.007807 432.748805c-37.323742-16.573358-92.703013-59.331725-174.716435-74.018685 20.974955-22.457125 36.829686-57.535155 53.178473-99.125751 9.476907-24.118953 7.859994-44.644765 7.859994-73.883943 0-21.603755 4.087197-56.277556-1.302513-75.321198-17.9657-64.407035-63.82315-82.193079-117.360937-82.193079s-99.350322 17.9657-117.405851 82.372736c-5.344796 18.953814-1.077942 53.582701-1.077942 75.141541 0 29.329006-1.571999 49.944647 7.904908 74.0636 16.438616 41.815167 32.113689 76.848283 52.998816 99.215579-81.339708 14.956445-136.314751 57.355498-173.413922 73.928857-76.758454 34.224659-77.117768 71.862801-77.117768 71.862801v63.643493h618.020088v-63.868064s-0.538971-37.593228-77.566911-71.817887z" fill="#D0E8F9" p-id="40199"></path><path d="M465.491293 283.274179V176.78249A176.78249 176.78249 0 0 0 288.933374 0.044914h-6.55748a176.737576 176.737576 0 0 0-176.737577 176.782491v106.446774H43.297338v365.557086h486.556077V283.274179h-64.362122z m-123.73876 298.500109H231.353305l26.94855-118.169393a55.199614 55.199614 0 1 1 56.097899 0z m35.482258-298.545024H194.074477V176.827405a88.391245 88.391245 0 0 1 88.301417-88.301417h6.692223a88.391245 88.391245 0 0 1 88.166674 88.256502v106.491689z" fill="#0096E6" p-id="40200"></path><path d="M358.370806 922.269222v31.439976H247.657178v-186.663626h38.581341v155.22365h72.132287zM549.211457 860.287556a100.248607 100.248607 0 0 1-6.871881 37.593228 85.337076 85.337076 0 0 1-19.402956 29.508663 88.705645 88.705645 0 0 1-30.137462 19.268213 105.817974 105.817974 0 0 1-39.075398 6.961709h-71.862801v-186.573797h71.862801a105.817974 105.817974 0 0 1 39.075398 6.961709 88.256502 88.256502 0 0 1 30.137462 19.358042 86.32519 86.32519 0 0 1 19.402956 29.508663 99.440151 99.440151 0 0 1 6.871881 37.41357z m-39.614369 0a84.034563 84.034563 0 0 0-3.862626-26.364665 55.558928 55.558928 0 0 0-11.048906-19.807184 48.282819 48.282819 0 0 0-17.561472-12.486162 59.870696 59.870696 0 0 0-23.490153-4.491425h-33.056888v126.16413h32.922146a60.589324 60.589324 0 0 0 23.490153-4.491425 47.294706 47.294706 0 0 0 17.561472-12.486162 56.232642 56.232642 0 0 0 11.048905-19.852098 84.438791 84.438791 0 0 0 3.997369-26.185009zM734.976797 953.619369h-30.092548a13.159875 13.159875 0 0 1-8.174393-2.380455 14.37256 14.37256 0 0 1-4.491425-6.108338l-12.620905-35.617001h-74.467827l-12.620905 35.617001a14.68696 14.68696 0 0 1-4.491425 5.838852 12.351419 12.351419 0 0 1-8.084565 2.649941h-30.227291l72.985658-186.573797h39.479626z m-64.901092-70.829773l-20.166498-57.086013q-1.79657-4.491425-3.817712-10.554848t-3.772797-13.114962q-1.79657 7.18628-3.817711 13.474276t-3.772797 10.599763l-20.07667 56.816527h55.424185zM815.10382 767.045572a108.333173 108.333173 0 0 1 33.101803 4.491425 62.879951 62.879951 0 0 1 22.951182 12.531076 49.405676 49.405676 0 0 1 13.474275 19.088557 65.664634 65.664634 0 0 1 4.491425 24.029124 68.269661 68.269661 0 0 1-4.491425 25.196894 51.516645 51.516645 0 0 1-13.474275 19.672442 63.374008 63.374008 0 0 1-22.996096 12.800562 104.380718 104.380718 0 0 1-32.517918 4.491425h-24.972323v64.182464h-38.581341v-186.483969h62.879951z m0 92.837756q17.9657 0 26.544322-8.758279a33.056888 33.056888 0 0 0 8.44388-23.939295 36.155972 36.155972 0 0 0-2.11097-12.665819 25.286723 25.286723 0 0 0-6.422738-9.791307 29.05952 29.05952 0 0 0-10.869249-6.24308 49.405676 49.405676 0 0 0-15.54033-2.200799h-24.478267v63.598579h24.433352z" fill="#FFFFFF" p-id="40201"></path></svg>