<?xml version="1.0" standalone="no"?><!DOCTYPE svg PUBLIC "-//W3C//DTD SVG 1.1//EN" "http://www.w3.org/Graphics/SVG/1.1/DTD/svg11.dtd"><svg t="1641293138076" class="icon" viewBox="0 0 1024 1024" version="1.1" xmlns="http://www.w3.org/2000/svg" p-id="11943" xmlns:xlink="http://www.w3.org/1999/xlink" width="128" height="128"><defs><style type="text/css"></style></defs><path d="M517.316563 355.830116v-97.52381c9.225225-10.543115 22.404118-17.132561 36.9009-17.132561 3.953668 0 7.907336 0 10.543115 1.317889v-38.21879c-18.45045 1.317889-35.583012 9.225225-47.444015 23.722008v-19.76834h-39.53668V355.830116h39.53668z" fill="#1ABA73" p-id="11944"></path><path d="M265.599703 134.42471v282.028314L509.409227 556.149292l243.809523-139.696268V148.921493l-60.622908 34.265122v197.683398L509.409227 487.619048l-184.504505-106.749035V168.689833l172.643501-100.159588V0z" fill="#1C1F2A" p-id="11945"></path><path d="M521.27023 0v68.530245l162.100387 94.88803 59.305019-35.583011z" fill="#1ABA73" p-id="11946"></path><path d="M310.40794 705.070785c0-18.45045-9.225225-25.039897-23.722008-25.039897-11.861004 0-23.722008 6.589447-30.311454 15.814672V777.554698h-21.08623v-112.020592h21.08623v15.814671c9.225225-11.861004 23.722008-18.45045 39.536679-18.45045 17.132561-2.635779 34.265122 10.543115 35.583012 27.675676V777.554698h-21.086229v-72.483913zM398.706524 662.898327c32.947233 0 54.033462 26.357786 54.033462 60.622909v5.271557H364.441402c1.317889 19.76834 18.45045 35.583012 38.21879 34.265122 11.861004 0 23.722008-5.271557 32.947233-13.178893l9.225225 13.178893c-11.861004 11.861004-27.675676 17.132561-44.808237 17.132561-32.947233 0-59.305019-25.039897-59.305019-57.98713 1.317889-32.947233 26.357786-59.305019 57.98713-59.305019zM364.441402 712.978121h68.530244c0-18.45045-14.496782-32.947233-32.947233-32.947233h-1.317889c-18.45045 0-34.265122 14.496782-34.265122 32.947233zM506.773448 734.06435L476.461994 777.554698h-23.722008l42.172458-57.98713-39.536679-54.033462h23.722007l28.993565 40.854568 28.993565-40.854568h23.722008l-39.53668 54.033462L562.124799 777.554698h-23.722007l-31.629344-43.490348zM647.787605 761.740026c-10.543115 10.543115-25.039897 17.132561-39.53668 18.45045-17.132561 2.635779-32.947233-9.225225-35.583011-26.357786v-88.298584h21.086229V738.018018c0 18.45045 9.225225 23.722008 23.722008 23.722008 11.861004 0 23.722008-6.589447 31.629343-15.814672v-81.709138h21.086229V777.554698h-21.086229v-15.814672zM692.595842 747.243243c10.543115 10.543115 23.722008 15.814672 36.900901 15.814672 15.814672 0 23.722008-6.589447 23.722007-15.814672s-13.178893-14.496782-27.675675-18.45045c-18.45045-3.953668-40.854569-9.225225-40.854569-32.947233 0-18.45045 15.814672-32.947233 42.172458-32.947233 15.814672 0 31.629344 5.271557 42.172458 15.814672l-9.225225 14.496782c-9.225225-9.225225-21.086229-13.178893-32.947233-13.178893-14.496782 0-22.404118 5.271557-22.404118 14.496783s11.861004 13.178893 26.357786 15.814671c19.76834 3.953668 42.172458 9.225225 42.172458 35.583012 0 19.76834-15.814672 34.265122-44.808237 34.265122-17.132561 1.317889-34.265122-5.271557-46.126126-17.132561l10.543115-15.814672z" fill="#1C1F2A" p-id="11947"></path><path d="M34.969072 867.171171h21.086229v17.132561c9.225225-10.543115 22.404118-19.76834 36.900901-19.768339v21.086229c-2.635779 0-3.953668-1.317889-6.589446-1.31789-10.543115 0-25.039897 7.907336-28.993565 15.814672v77.75547H34.969072v-110.702703zM153.579111 864.535393c34.265122 0 54.033462 26.357786 54.033462 60.622908v5.271557H119.313989c1.317889 18.45045 15.814672 34.265122 38.21879 34.265123 11.861004 0 25.039897-5.271557 32.947233-13.178893l9.225225 13.178893c-10.543115 10.543115-26.357786 17.132561-44.808237 17.132561-32.947233 0-57.98713-23.722008-57.98713-59.305019 0-31.629344 23.722008-57.98713 56.669241-57.98713z m-34.265122 51.397683h68.530244c0-14.496782-10.543115-32.947233-34.265122-32.947233-22.404118-1.317889-32.947233 17.132561-34.265122 32.947233zM224.745134 1022.682111V867.171171H245.831363V882.985843c7.907336-10.543115 21.086229-18.45045 36.900901-18.45045 28.993565 0 50.079794 22.404118 50.079794 59.305019s-21.086229 59.305019-50.079794 59.305019c-14.496782 0-27.675676-6.589447-36.900901-18.45045v59.305019h-21.086229zM276.142817 882.985843c-13.178893 0-25.039897 7.907336-31.629343 15.814672v47.444015c5.271557 9.225225 18.45045 15.814672 31.629343 15.814672 21.086229 0 34.265122-17.132561 34.265123-40.854569 0-21.086229-13.178893-38.21879-34.265123-38.21879zM342.037283 923.840412c0-31.629344 22.404118-59.305019 56.669241-59.305019 35.583012 0 56.669241 26.357786 56.669241 59.305019s-21.086229 59.305019-56.669241 59.305019c-34.265122-1.317889-56.669241-27.675676-56.669241-59.305019z m92.252252 0c0-21.086229-11.861004-39.53668-34.265122-39.53668-22.404118 0-34.265122 18.45045-34.265122 39.53668s13.178893 40.854569 34.265122 40.854569c21.086229-1.317889 34.265122-19.76834 34.265122-40.854569zM472.508326 950.198198c7.907336 7.907336 22.404118 15.814672 38.21879 15.814672s23.722008-6.589447 23.722008-15.814672c0-10.543115-13.178893-14.496782-27.675676-18.45045-18.45045-3.953668-40.854569-9.225225-40.854569-34.265123 0-18.45045 15.814672-32.947233 42.172458-32.947232 19.76834 0 32.947233 6.589447 42.172458 15.814671l-9.225225 14.496783c-6.589447-7.907336-18.45045-13.178893-32.947233-13.178893s-22.404118 5.271557-22.404118 14.496782c0 9.225225 11.861004 13.178893 26.357786 15.814672 19.76834 3.953668 42.172458 9.225225 42.172458 35.583012 0 19.76834-15.814672 34.265122-44.808236 34.265122-18.45045 0-35.583012-5.271557-46.126127-17.132561l9.225226-14.496783zM568.714246 835.541828c0-7.907336 6.589447-13.178893 13.178893-13.178894 7.907336 0 13.178893 6.589447 13.178893 13.178894 0 7.907336-6.589447 13.178893-13.178893 13.178893s-13.178893-5.271557-13.178893-13.178893z m2.635779 31.629343h21.086229v112.020592h-21.086229v-112.020592zM621.429819 954.151866v-68.530244H601.661479v-18.450451h18.45045v-30.311454H641.198158v30.311454h22.404119v18.450451H641.198158v64.576576c0 7.907336 3.953668 13.178893 10.543115 13.178893 5.271557 0 9.225225-2.635779 11.861004-3.953668l5.271557 15.814672c-3.953668 3.953668-10.543115 6.589447-22.404118 6.589447-17.132561 0-25.039897-9.225225-25.039897-27.675676zM675.463281 923.840412c0-31.629344 22.404118-59.305019 56.66924-59.305019 35.583012 0 56.669241 26.357786 56.669241 59.305019s-21.086229 59.305019-56.669241 59.305019c-34.265122-1.317889-56.669241-27.675676-56.66924-59.305019z m92.252252 0c0-21.086229-11.861004-39.53668-34.265122-39.53668-22.404118 0-34.265122 18.45045-34.265123 39.53668s13.178893 40.854569 34.265123 40.854569c21.086229-1.317889 34.265122-19.76834 34.265122-40.854569zM801.980655 867.171171h21.086229v17.132561c9.225225-10.543115 22.404118-19.76834 36.900901-19.768339v21.086229c-2.635779 0-3.953668-1.317889-6.589446-1.31789-10.543115 0-25.039897 7.907336-28.993565 15.814672v77.75547h-21.08623v-110.702703zM895.550797 1004.23166c7.907336 0 13.178893-2.635779 15.814672-10.543114l6.589446-14.496783-46.126126-113.338481h22.404118l35.583012 88.298584 35.583012-88.298584h22.404118l-55.351351 133.106821c-6.589447 17.132561-19.76834 23.722008-35.583012 23.722008-3.953668 0-9.225225-1.317889-13.178893-1.31789l2.635779-18.45045c2.635779 0 6.589447 1.317889 9.225225 1.317889z" fill="#1ABA73" p-id="11948"></path></svg>