<?xml version="1.0" standalone="no"?><!DOCTYPE svg PUBLIC "-//W3C//DTD SVG 1.1//EN" "http://www.w3.org/Graphics/SVG/1.1/DTD/svg11.dtd"><svg t="1641266685272" class="icon" viewBox="0 0 3897 1024" version="1.1" xmlns="http://www.w3.org/2000/svg" p-id="34710" xmlns:xlink="http://www.w3.org/1999/xlink" width="487.125" height="128"><defs><style type="text/css"></style></defs><path d="M2044.347224 773.020657c-62.784955 42.671761-148.533493 26.303045-191.235821-36.489553-42.694687-62.784955-26.295403-148.56406 36.489552-191.327522 62.76203-42.664119 148.541134-26.272478 191.235821 36.520119 42.732896 62.76203 26.364179 148.571701-36.489552 191.296956m85.20597-224.408836c-60.973851-89.859821-183.303642-113.098507-273.064119-52.063522-89.821612 61.042627-113.129075 183.341851-52.063523 273.102328 54.004537 79.535761 155.991881 106.79403 240.945672 69.76191l76.066388 123.544836 60.370149-41.013492-76.035821-123.544836c65.719403-65.367881 77.877493-170.343164 23.781254-249.787224" fill="#070707" p-id="34711"></path><path d="M3744.645731 844.035821h-46.997015c0-378.559045-312.358209-686.530866-696.258865-686.530866v-46.997015c409.852179 0 743.255881 328.979104 743.25588 733.520239" fill="#499CD2" p-id="34712"></path><path d="M3777.123343 591.528119c-56.388776-237.468657-248.832-435.673791-490.121552-504.96191l10.828418-37.666388c254.662687 73.13194 457.773851 282.517015 517.379821 533.549851l-38.086687 9.078447zM3830.042746 368.678209c-58.138746-126.792597-157.290985-237.376955-278.95594-311.341851L3567.363821 30.567164c127.037134 77.243224 230.361791 192.603701 291.11403 325.028299l-28.427463 13.090388z" fill="#489CD2" p-id="34713"></path><path d="M32.859701 823.983761c28.274627 15.283582 71.832836 26.746269 120.740299 26.746269 106.985075 0 161.241791-51.2 161.241791-121.504478-0.764179-54.256716-29.802985-90.173134-100.871642-114.626865-45.850746-15.283582-60.370149-25.21791-60.370149-42.79403 0-18.340299 16.047761-29.802985 44.322388-29.802985 31.331343 0 64.191045 12.226866 81.002985 20.632835l19.868657-79.474626c-22.925373-11.462687-61.134328-22.161194-104.692537-22.161194-92.465672 0-152.071642 52.728358-152.071642 123.032835-0.764179 43.558209 29.038806 85.58806 106.985074 111.57015 42.79403 13.755224 54.256716 23.689552 54.256717 42.794029 0 19.104478-14.519403 30.567164-49.671642 30.567165-34.38806 0-78.710448-14.519403-100.107463-27.510448l-20.632836 82.531343zM520.40597 851.494209c99.343284 0 196.39403-62.662687 196.39403-198.686567 0-113.098507-76.41791-191.808955-190.280597-191.808955-120.740299 0-200.214925 77.18209-200.214925 197.922388 0 120.740299 84.059701 192.573134 193.337313 192.573134h0.764179z m1.528358-83.295522c-48.907463 0-75.653731-48.143284-75.653731-111.57015 0-55.785075 21.397015-112.334328 76.41791-112.334328 52.728358 0 74.125373 56.549254 74.125374 111.570149 0 67.247761-28.274627 112.334328-74.125374 112.334329h-0.764179zM750.423881 843.088239h116.155223v-215.498508c0-10.698507 0.764179-21.397015 3.820896-29.038806 8.40597-21.397015 27.510448-43.558209 59.60597-43.558209 42.029851 0 58.841791 32.859701 58.841791 81.002985v207.092538h116.155224v-220.847761c0-110.041791-57.313433-161.241791-133.731343-161.241791-62.662687 0-100.107463 35.916418-115.391045 60.370149h-2.292537l-5.349254-51.964179H747.367164c1.528358 33.623881 3.056716 72.597015 3.056717 119.21194v254.471642zM1471.044776 622.240478c0-87.880597-38.973134-161.241791-163.534328-161.241791-68.01194 0-119.21194 19.104478-145.19403 33.62388l21.397015 74.125373c24.453731-14.519403 64.955224-27.510448 103.164179-27.510447 57.313433 0 68.01194 28.274627 68.01194 48.143283v4.585075c-132.202985 0-219.319403 45.850746-219.319403 142.901492 0 59.60597 45.086567 114.626866 120.740299 114.626866 44.322388 0 82.531343-16.047761 106.985074-45.850746h2.292538l6.877612 37.444776h104.692537c-4.585075-20.632836-6.113433-55.020896-6.113433-90.173135v-130.674626z m-112.334328 84.82388c0 6.877612-0.764179 13.755224-2.292538 19.868657-7.641791 23.689552-32.095522 42.79403-60.370149 42.79403-25.98209 0-45.850746-14.519403-45.850746-44.322388 0-44.322388 47.379104-58.841791 108.513433-58.841791v40.501492zM1525.301493 843.088239h116.155223v-188.752239c0-9.934328 0.764179-18.340299 2.292538-25.98209 7.641791-36.680597 36.680597-58.841791 79.474627-58.841791 12.991045 0 22.161194 1.528358 31.331343 3.056717v-109.277612c-8.40597-1.528358-13.755224-2.292537-24.453731-2.292537-36.680597 0-81.767164 22.925373-100.871642 77.946268h-3.056717l-4.585074-69.540298h-99.343284c2.292537 32.095522 3.056716 68.01194 3.056717 123.032836v250.650746z" fill="#070707" p-id="34714"></path><path d="M2512.804299 475.296478h-67.247762v226.197015c0 12.991045-2.292537 25.21791-6.113433 34.388059-12.226866 30.567164-43.558209 61.898507-88.644776 61.898508-60.370149 0-82.531343-48.143284-82.531343-118.447761v-204.035821h-67.247761v216.262686c0 129.146269 69.540299 162.00597 127.61791 162.00597 65.719403 0 105.456716-38.973134 122.268657-68.776119h1.528358l3.820896 60.370149h59.60597c-2.292537-29.038806-3.056716-62.662687-3.056716-101.635821v-268.226865zM2586.165493 749.636776c0 32.859701-0.764179 70.304478-3.056717 95.522388h58.077612l3.820896-61.134328h1.528358c28.274627 48.907463 70.304478 69.540299 123.797015 69.540298 82.531343 0 166.591045-65.719403 166.591044-198.686567 0-111.570149-64.191045-187.98806-155.892537-187.98806-59.60597 0-102.4 25.98209-126.089552 67.247762h-1.528358v-231.546269h-67.247761v447.044776z m67.247761-119.21194c0-10.698507 1.528358-19.868657 3.820895-28.274627 12.991045-50.435821 55.785075-82.531343 101.635821-82.531343 71.832836 0 110.041791 63.426866 110.041791 138.316418 0 84.823881-41.265672 142.137313-112.334328 142.137313-48.143284 0-87.880597-32.095522-100.871642-78.710448-1.528358-7.641791-2.292537-16.047761-2.292537-24.453731v-66.483582zM3280.040119 672.454687c1.528358-7.641791 2.292537-17.576119 2.292538-31.331344 0-68.01194-31.331343-174.232836-152.071642-174.232836-107.749254 0-174.232836 87.880597-174.232836 199.450747 0 110.80597 68.776119 186.459701 181.874627 186.459701 58.841791 0 100.107463-12.991045 123.797015-23.689552l-12.226866-48.143284c-24.453731 10.698507-54.256716 19.104478-102.4 19.104478-67.247761 0-124.561194-37.444776-126.089552-127.61791h259.056716z m-258.292537-48.143284c5.349254-46.614925 34.38806-109.277612 103.164179-109.277612 74.889552 0 93.229851 66.483582 92.465672 109.277612h-195.629851z" fill="#070707" p-id="34715"></path></svg>