<?xml version="1.0" standalone="no"?><!DOCTYPE svg PUBLIC "-//W3C//DTD SVG 1.1//EN" "http://www.w3.org/Graphics/SVG/1.1/DTD/svg11.dtd"><svg t="1641266330880" class="icon" viewBox="0 0 3072 1024" version="1.1" xmlns="http://www.w3.org/2000/svg" p-id="32178" xmlns:xlink="http://www.w3.org/1999/xlink" width="384" height="128"><defs><style type="text/css"></style></defs><path d="M0 76.8h3072v870.4H0z" fill="#E40000" p-id="32179"></path><path d="M688.64 791.04v-53.76H343.04l327.68-427.52v-51.2h-384v53.76h307.2L263.68 742.4v51.2h424.96z m81.92 0l56.32-148.48h240.64l56.32 148.48h66.56l-207.36-532.48h-69.12l-207.36 532.48h64zM1049.6 591.36h-204.8l102.4-266.24h2.56L1049.6 591.36z m427.52 199.68c53.76 0 97.28-10.24 128-33.28 35.84-25.6 53.76-64 53.76-115.2 0-35.84-10.24-64-30.72-87.04-17.92-23.04-46.08-38.4-79.36-43.52 25.6-7.68 48.64-23.04 64-43.52 15.36-20.48 23.04-48.64 23.04-76.8 0-40.96-12.8-74.24-40.96-97.28-28.16-23.04-66.56-35.84-117.76-35.84h-235.52v532.48h235.52z m-12.8-299.52H1305.6v-181.76h161.28c35.84 0 64 7.68 84.48 20.48 17.92 15.36 28.16 38.4 28.16 66.56 0 30.72-10.24 53.76-30.72 69.12-20.48 17.92-48.64 25.6-84.48 25.6z m7.68 248.32h-168.96v-197.12h168.96c40.96 0 71.68 7.68 92.16 23.04 23.04 15.36 33.28 40.96 33.28 76.8 0 33.28-12.8 61.44-38.4 76.8-20.48 12.8-51.2 20.48-87.04 20.48z m504.32 51.2c53.76 0 97.28-10.24 128-33.28 35.84-25.6 53.76-64 53.76-115.2 0-35.84-10.24-64-30.72-87.04-17.92-23.04-46.08-38.4-79.36-43.52 25.6-7.68 48.64-23.04 64-43.52 15.36-20.48 23.04-48.64 23.04-76.8 0-40.96-12.8-74.24-40.96-97.28-28.16-23.04-66.56-35.84-117.76-35.84H1740.8v532.48h235.52z m-12.8-299.52h-158.72v-181.76h161.28c35.84 0 64 7.68 84.48 20.48 17.92 15.36 28.16 38.4 28.16 66.56 0 30.72-10.24 53.76-30.72 69.12-20.48 17.92-48.64 25.6-84.48 25.6z m7.68 248.32h-168.96v-197.12H1971.2c40.96 0 71.68 7.68 92.16 23.04 23.04 15.36 33.28 40.96 33.28 76.8 0 33.28-12.8 61.44-38.4 76.8-20.48 12.8-51.2 20.48-87.04 20.48z m335.36 51.2V258.56h-58.88v532.48h58.88z m135.68 0l156.16-227.84 156.16 227.84h74.24l-194.56-276.48 181.76-256h-74.24l-143.36 207.36-143.36-207.36H2380.8l179.2 256-194.56 276.48h76.8z" fill="#FFFFFF" p-id="32180"></path></svg>